<svg id="SvgjsSvg1857" width="550" height="550" xmlns="http://www.w3.org/2000/svg" version="1.1" xmlns:xlink="http://www.w3.org/1999/xlink" xmlns:svgjs="http://svgjs.com/svgjs"><defs id="SvgjsDefs1858"></defs><g id="SvgjsG1859"><svg xmlns="http://www.w3.org/2000/svg" viewBox="0 0 512 512" width="550" height="550"><path fill="#ffffff" d="M255.999 108.233c-43.45 0-78.674 8.585-78.675 19.175v23.706A78.537 78.537 0 0 0 213.4 217.18 78.821 78.821 0 0 1 244.356 256h.056c0 1.56 5.188 2.824 11.587 2.824 6.4 0 11.588-1.264 11.588-2.824h.057a78.918 78.918 0 0 1 30.978-38.843 78.523 78.523 0 0 0 36.054-66.043v-23.706c-.002-10.59-35.227-19.175-78.677-19.175Z" class="colorfff svgShape"></path><path fill="#afd8f9" d="M298.6 294.821a78.833 78.833 0 0 1-30.956-38.82h-23.288a78.919 78.919 0 0 1-30.978 38.842 78.522 78.522 0 0 0-36.054 66.043v23.706c.001 10.59 35.226 19.174 78.675 19.174 43.45 0 78.675-8.584 78.677-19.174v-23.706A78.536 78.536 0 0 0 298.6 294.82Z" class="colorafd8f9 svgShape"></path><path fill="#def4fc" d="M255.999 206.987A49.013 49.013 0 1 0 305.013 256a49.012 49.012 0 0 0-49.014-49.013Z" class="colordef4fc svgShape"></path><path fill="#c8dff5" d="M210.731 426.055q1.363.233 2.767.451l.428-2.749q-1.384-.215-2.727-.444zm19.667-33.838-.235-2.772q-1.403.119-2.786.249l.263 2.77q1.366-.13 2.758-.247zm-5.513.522-.292-2.767q-1.406.149-2.782.31l.324 2.763q1.36-.159 2.75-.306zm-3.062 34.897q1.377.161 2.782.31l.292-2.767q-1.388-.147-2.749-.307zm27.897 1.83q1.391.026 2.795.041l.03-2.782q-1.392-.015-2.772-.041zm-30.331-36.083-.358-2.759q-1.402.182-2.774.376l.391 2.755q1.354-.192 2.74-.372zm-3.12 33.535q1.37.195 2.776.376l.356-2.759q-1.387-.18-2.74-.371zm11.12 1.306q1.381.131 2.786.25l.234-2.773q-1.39-.117-2.757-.247zM246.99 391.3l-.077-2.781q-1.406.039-2.794.09l.102 2.78q1.376-.05 2.769-.09zm-2.859 38.01q1.39.052 2.794.09l.078-2.78q-1.392-.039-2.77-.09zm8.4-38.117-.03-2.782q-1.404.015-2.794.042l.053 2.782q1.38-.027 2.771-.042zm-16.61.615-.18-2.777q-1.405.09-2.79.193l.206 2.775q1.37-.102 2.763-.191zm2.624 37.247q1.387.077 2.792.14l.128-2.779q-1.393-.063-2.768-.14zm-5.581-.36q1.383.103 2.79.194l.179-2.777q-1.393-.09-2.764-.191zm8.49-37.192-.129-2.78q-1.405.066-2.792.141l.152 2.779q1.375-.076 2.768-.14zm-62.188 15.515-2.426-1.361a6.704 6.704 0 0 0-.908 3.303h2.782a3.917 3.917 0 0 1 .552-1.942zm8.144-5.939-1.138-2.539c-.92.412-1.79.837-2.588 1.265l1.314 2.453a38.429 38.429 0 0 1 2.412-1.179zm-3.715 17.041c.799.428 1.67.853 2.589 1.264l1.136-2.539a38.384 38.384 0 0 1-2.41-1.178zm8.78-19.009-.896-2.634c-.927.315-1.826.64-2.67.967l1.002 2.596c.81-.313 1.672-.625 2.564-.929zm-13.641 15.642a18.425 18.425 0 0 0 2.355 1.866l1.558-2.306a15.617 15.617 0 0 1-1.997-1.578zm3.902-11.14-1.56-2.304a18.317 18.317 0 0 0-2.353 1.868l1.917 2.016a15.53 15.53 0 0 1 1.996-1.58zm-4.022 5.352-2.782.002a6.7 6.7 0 0 0 .915 3.31l2.423-1.367a3.918 3.918 0 0 1-.556-1.945zm10.206 11.515c.851.328 1.75.653 2.672.966l.894-2.635a66.2 66.2 0 0 1-2.563-.927zm19.546-25.388-.51-2.735q-1.403.262-2.755.538l.556 2.726q1.33-.271 2.71-.53zm5.446-.93-.428-2.748q-1.404.218-2.766.45l.467 2.744q1.344-.23 2.727-.445zm-8.699 30.864q1.352.276 2.756.538l.509-2.735q-1.378-.257-2.708-.53zm-5.486-1.231q1.337.33 2.739.643l.607-2.715q-1.37-.307-2.68-.63zm3.335-27.596-.608-2.715q-1.401.314-2.74.643l.666 2.702q1.31-.323 2.682-.63zm-5.344 1.32-.731-2.685q-1.397.38-2.713.779l.807 2.663q1.278-.387 2.637-.757zm-3.431 24.791q1.315.397 2.713.778l.73-2.684q-1.359-.37-2.638-.757zM297.12 391.2q-1.367-.203-2.773-.394l-.374 2.758q1.387.188 2.738.388zm18.486 28.829.766 2.674q1.397-.4 2.706-.82l-.85-2.65q-1.267.407-2.622.796zm3.46-24q-1.308-.418-2.706-.819l-.766 2.674q1.355.389 2.623.795zm-5.424-1.56q-1.333-.345-2.735-.674l-.635 2.709q1.368.32 2.671.658zm-3.359 26.941.636 2.71q1.401-.33 2.734-.675l-.698-2.694q-1.303.338-2.672.66zm-7.63-29.307q-1.36-.243-2.764-.471l-.447 2.746q1.383.225 2.723.464zm2.238 30.463.534 2.73q1.402-.273 2.752-.562l-.583-2.72q-1.324.283-2.703.552zm3.273-29.386q-1.348-.288-2.752-.562l-.533 2.73q1.377.27 2.702.553zm-8.71 30.358.448 2.745q1.404-.229 2.764-.471l-.489-2.74q-1.34.24-2.723.466zm32.626-17.468 2.153-1.762a14.182 14.182 0 0 0-2.214-2.13l-1.72 2.187a11.404 11.404 0 0 1 1.781 1.705zm-1.772 7.475 1.721 2.186a14.092 14.092 0 0 0 2.214-2.135l-2.156-1.758a11.343 11.343 0 0 1-1.779 1.707zm5.507-6.338-2.671.773a3.454 3.454 0 0 1 .002 1.948l2.674.765a6.226 6.226 0 0 0-.005-3.486zm-77.741-16.027.017-2.782q-1.043-.006-2.092-.006h-.701l.004 2.783.697-.001q1.04 0 2.075.006zm66.331 6.79a61.664 61.664 0 0 0-2.656-1.028l-.945 2.617c.884.32 1.737.649 2.535.98zm-3.59 20.384.948 2.616a61.566 61.566 0 0 0 2.654-1.027l-1.066-2.57c-.794.33-1.647.66-2.535.981zm8.757-17.84a34.885 34.885 0 0 0-2.552-1.372l-1.22 2.502a32.07 32.07 0 0 1 2.347 1.26zm-3.76 15.754 1.22 2.5c.918-.447 1.776-.909 2.553-1.373l-1.426-2.389c-.71.424-1.5.849-2.346 1.262zm-31.827 8.084.375 2.757q1.402-.191 2.772-.394l-.408-2.752q-1.352.2-2.739.389zm-24.717-35.69q-1.389-.057-2.793-.103l-.09 2.781q1.393.045 2.77.102zm5.585.281q-1.386-.082-2.792-.153l-.14 2.779q1.392.07 2.766.152zM256 426.743h-.686l-.003 2.782H256q1.055 0 2.104-.006l-.018-2.783q-1.04.007-2.086.007zm15.933-.395.14 2.778q1.405-.07 2.792-.153l-.165-2.778q-1.375.083-2.767.153zm-11.077.36.042 2.782q1.403-.022 2.795-.054l-.066-2.782q-1.378.033-2.771.053zm2.825-38.227q-1.39-.032-2.794-.053l-.042 2.782q1.392.02 2.771.053zm2.716 38.096.09 2.78q1.405-.045 2.793-.102l-.114-2.78q-1.376.057-2.769.101zm14.037-37.247q-1.385-.11-2.79-.207l-.192 2.776q1.392.096 2.761.205zm8.06 35.698.308 2.765q1.404-.156 2.78-.326l-.34-2.76q-1.359.166-2.748.321zm-5.508.552.247 2.771q1.405-.126 2.786-.264l-.278-2.769q-1.365.138-2.755.262zm8.583-35.132q-1.374-.169-2.78-.326l-.307 2.766q1.389.154 2.748.321zm-14.106 35.57.193 2.776q1.406-.098 2.79-.207l-.22-2.774q-1.37.108-2.763.205zm8.542-36.19q-1.378-.138-2.785-.263l-.247 2.771q1.39.124 2.756.261zM256 150.015l-91.786 52.992v105.986L256 361.985l91.786-52.992V203.007zm89.004 157.371L256 358.772l-89.004-51.386V204.614L256 153.228l89.004 51.386z" class="colorc8dff5 svgShape"></path><path fill="#c8dff5" d="M318.877 291.715v.587l-.508.294 1.391 2.41 1.9-1.097v-2.194h-2.783zM273.829 318.311l1.39 2.41 2.475-1.43-1.391-2.409Zm4.948-2.857 1.391 2.41 2.475-1.43-1.391-2.409Zm4.95-2.857 1.39 2.41 2.474-1.43-1.39-2.409Zm-14.847 8.571 1.39 2.41 2.475-1.429-1.391-2.41Zm-9.898 5.714 1.391 2.41 2.475-1.429-1.392-2.409Zm4.95-2.857 1.39 2.41 2.475-1.429-1.391-2.41Zm29.692-17.143 1.391 2.41 2.474-1.429-1.39-2.41Zm22.27-12.857-2.476 1.429 1.392 2.409 2.474-1.428Zm-7.424 4.286 1.391 2.41 2.475-1.43-1.391-2.409Zm-9.897 5.714 1.39 2.41 2.475-1.43-1.391-2.408Zm-9.898 5.714 1.39 2.41 2.476-1.429-1.392-2.41Zm14.846-8.571 1.391 2.41 2.475-1.43-1.391-2.409ZM256.508 328.311l-.509.293-.509-.293-1.391 2.409 1.9 1.097 1.9-1.097-1.391-2.409zM214.51 307.863l2.474 1.428 1.391-2.409-2.474-1.428Zm4.949 2.857 2.474 1.428 1.391-2.409-2.474-1.428Zm-9.897-5.714 2.474 1.428 1.39-2.409-2.473-1.429Zm-4.95-2.857 2.475 1.428 1.392-2.41-2.475-1.428Zm-9.896-5.714 2.474 1.428 1.391-2.41-2.474-1.428Zm4.948 2.857 2.475 1.428 1.39-2.41-2.474-1.428Zm44.538 25.714 2.474 1.428 1.391-2.41-2.474-1.428Zm-4.949-2.858 2.475 1.429 1.391-2.41-2.475-1.428Zm11.288 3.305-1.39 2.41 2.474 1.428 1.391-2.41Zm-21.186-9.019 2.475 1.429 1.391-2.41-2.474-1.428Zm4.95 2.857 2.474 1.429 1.39-2.41-2.473-1.428Zm-9.898-5.714 2.475 1.429 1.39-2.41-2.474-1.428ZM193.123 292.303v-.588h-2.783v2.194l1.9 1.097 1.391-2.409-.508-.294zM190.34 260.286h2.783v-2.857h-2.783Zm0 5.714h2.783v-2.857h-2.783Zm0 5.715h2.783v-2.857h-2.783Zm0 17.142h2.783V286h-2.783Zm0-11.428h2.783v-2.857h-2.783Zm0 5.714h2.783v-2.857h-2.783Zm0-45.713h2.783v-2.858h-2.783Zm0-5.715h2.783v-2.857h-2.783Zm0 22.857h2.783v-2.857h-2.783Zm0-31.428v2.857h2.783v-2.857Zm0 20h2.783v-2.857h-2.783Zm0 5.714h2.783v-2.857h-2.783ZM192.24 216.996l-1.9 1.097v2.194h2.783v-.588l.508-.294-1.391-2.409zM214.51 204.138l1.39 2.41 2.475-1.429-1.39-2.41Zm4.948-2.857 1.391 2.41 2.475-1.43-1.391-2.409Zm-9.897 5.714 1.391 2.41 2.474-1.429-1.39-2.41Zm-14.846 8.572 1.39 2.41 2.476-1.429-1.392-2.41Zm4.949-2.857 1.39 2.41 2.475-1.43-1.39-2.409Zm4.948-2.857 1.39 2.41 2.476-1.43-1.392-2.41Zm19.794-11.43 1.392 2.41 2.474-1.428-1.391-2.41Zm4.95-2.856 1.39 2.41 2.475-1.43-1.391-2.41Zm14.845-8.572 1.391 2.41 2.475-1.43-1.391-2.409Zm7.423-4.286-2.474 1.429 1.391 2.409 2.474-1.428Zm-12.372 7.143 1.392 2.41 2.474-1.43-1.391-2.408Zm-4.948 2.857 1.391 2.41 2.475-1.429-1.391-2.41ZM255.999 180.183l-1.901 1.098 1.393 2.409.508-.294.509.294 1.391-2.41-1.9-1.097zM273.829 193.69l2.474 1.428 1.391-2.409-2.474-1.428Zm4.949 2.857 2.474 1.429 1.392-2.41-2.475-1.428Zm4.949 2.857 2.474 1.43 1.391-2.41-2.474-1.43Zm-24.745-14.286 2.475 1.429 1.392-2.41-2.475-1.428Zm9.898 5.715 2.475 1.428 1.391-2.409-2.474-1.429Zm-4.949-2.857 2.475 1.428 1.39-2.41-2.474-1.428Zm24.745 14.286 2.474 1.428 1.392-2.409-2.475-1.429Zm26.135 11.877-1.392 2.409 2.475 1.429 1.391-2.41Zm-6.34-.448 2.474 1.428 1.391-2.41-2.474-1.428Zm-4.95-2.858 2.475 1.43 1.391-2.41-2.474-1.43Zm-9.897-5.714 2.475 1.428 1.39-2.409-2.474-1.428Zm4.95 2.857 2.473 1.429 1.391-2.41-2.474-1.428ZM319.76 216.996l-1.391 2.409.508.294v.588h2.783v-2.194l-1.9-1.097zM318.877 260.286h2.783v-2.857h-2.783Zm0 5.715h2.783v-2.858h-2.783Zm0 5.714h2.783v-2.857h-2.783Zm0 5.714h2.783v-2.857h-2.783Zm0 11.429h2.783V286h-2.783Zm0-5.715h2.783v-2.857h-2.783Zm0-34.285h2.783v-2.857h-2.783Zm0-25.714v2.857h2.783v-2.857Zm0 31.428h2.783v-2.857h-2.783Zm0-22.856h2.783v-2.858h-2.783Zm0 5.714h2.783v-2.857h-2.783Zm0 5.714h2.783v-2.857h-2.783Z" class="colorc8dff5 svgShape"></path><path fill="#5ba1e1" d="M327.067 327.156H184.935a78.052 78.052 0 0 0-7.61 33.73v23.706c0 10.59 35.225 19.174 78.674 19.174 43.45 0 78.675-8.584 78.677-19.174v-23.706a78.102 78.102 0 0 0-7.609-33.73Z" class="color5ba1e1 svgShape"></path><path fill="#288de8" d="M184.933 184.845a79.142 79.142 0 0 0 28.466 32.334A78.821 78.821 0 0 1 244.356 256h.056c0 1.56 5.188 2.824 11.587 2.824 6.4 0 11.588-1.264 11.588-2.824h.057a78.918 78.918 0 0 1 30.978-38.843 79.146 79.146 0 0 0 28.444-32.312zm71.066 180.57c-43.45 0-78.675 8.586-78.675 19.176s35.224 19.175 78.675 19.175c43.453 0 78.677-8.584 78.677-19.175s-35.224-19.175-78.677-19.175z" class="color288de8 svgShape"></path><path fill="#2481d7" d="M255.999 365.416c-43.45 0-78.675 8.585-78.675 19.175h157.352c0-10.59-35.224-19.175-78.677-19.175Z" class="color2481d7 svgShape"></path><path fill="#2481d7" d="M256 363.329c-39.152 0-80.763 7.452-80.763 21.263 0 13.81 41.611 21.261 80.763 21.261s80.763-7.452 80.763-21.261c0-13.811-41.612-21.263-80.763-21.263Zm55.138 32.794c-14.702 3.583-34.284 5.557-55.138 5.557s-40.436-1.974-55.138-5.557c-15.816-3.855-21.45-8.484-21.45-11.532 0-3.047 5.634-7.677 21.45-11.531 14.702-3.584 34.284-5.558 55.138-5.558 20.853 0 40.435 1.974 55.138 5.558 15.816 3.854 21.45 8.484 21.45 11.531 0 3.048-5.634 7.677-21.45 11.532Z" class="color2481d7 svgShape"></path><path fill="#288de8" d="M255.999 313.531c-39.803 0-72.069 7.864-72.069 17.566 0 9.701 32.266 17.566 72.069 17.566 39.804 0 72.07-7.865 72.07-17.566 0-9.702-32.266-17.566-72.07-17.566Z" class="color288de8 svgShape"></path><path fill="#2481d7" d="M300.116 292.489a76.486 76.486 0 0 1-29.862-37.45 2.782 2.782 0 1 0-5.22 1.924 82.083 82.083 0 0 0 32.056 40.195 75.623 75.623 0 0 1 34.804 63.728v23.706c-.001 3.443-8.409 7.806-20.922 10.855-14.65 3.57-34.174 5.537-54.972 5.537-20.8 0-40.322-1.966-54.973-5.537-12.513-3.05-20.92-7.412-20.92-10.855v-23.706a75.624 75.624 0 0 1 34.787-63.71 82.187 82.187 0 0 0 32.072-40.21 2.783 2.783 0 0 0-5.22-1.93 76.576 76.576 0 0 1-29.878 37.47 81.167 81.167 0 0 0-37.326 68.38v23.706c0 6.72 8.468 12.192 25.167 16.262 15.07 3.672 35.06 5.695 56.29 5.695 21.23 0 41.221-2.023 56.29-5.695 16.7-4.07 25.168-9.541 25.169-16.262v-23.706a81.162 81.162 0 0 0-37.342-68.397Z" class="color2481d7 svgShape"></path><path fill="#afd8f9" d="M255.999 310.708c-37.269 0-67.48 7.363-67.48 16.448 0 9.083 30.211 16.447 67.48 16.447 37.27 0 67.483-7.364 67.483-16.447 0-9.085-30.213-16.448-67.483-16.448Z" class="colorafd8f9 svgShape"></path><path fill="#c8dff5" d="M188.519 327.156c0 9.083 30.211 16.447 67.48 16.447 37.27 0 67.483-7.364 67.483-16.447Z" class="colorc8dff5 svgShape"></path><path fill="#2481d7" d="M304.046 314.174c-12.85-3.132-29.914-4.857-48.046-4.857-18.134 0-35.196 1.725-48.046 4.857-9.5 2.315-20.827 6.448-20.827 12.982 0 6.533 11.326 10.665 20.827 12.981 12.85 3.132 29.914 4.857 48.046 4.857 18.132 0 35.195-1.725 48.046-4.857 9.5-2.316 20.827-6.448 20.827-12.98 0-6.535-11.326-10.668-20.827-12.983zM256 342.212c-38.948 0-66.09-7.935-66.09-15.056 0-7.122 27.142-15.057 66.09-15.057 38.948 0 66.09 7.935 66.09 15.057 0 7.121-27.142 15.056-66.09 15.056zm56.291-231.066c-15.07-3.673-35.06-5.695-56.292-5.695s-41.221 2.022-56.29 5.695c-16.7 4.07-25.167 9.542-25.167 16.263 0 6.72 8.467 12.192 25.167 16.262 15.069 3.673 35.06 5.696 56.29 5.696 21.231 0 41.223-2.023 56.292-5.696 16.7-4.07 25.167-9.541 25.167-16.262s-8.467-12.193-25.167-16.263zm-1.318 27.119c-14.65 3.57-34.174 5.537-54.974 5.537-20.799 0-40.322-1.966-54.972-5.537-12.513-3.05-20.92-7.413-20.92-10.856s8.407-7.807 20.92-10.857c14.65-3.57 34.173-5.537 54.972-5.537 20.8 0 40.324 1.967 54.974 5.537 12.513 3.05 20.92 7.413 20.92 10.857s-8.407 7.806-20.92 10.856z" class="color2481d7 svgShape"></path><path fill="#5ba1e1" d="M255.999 175.627c-37.269 0-67.48 7.363-67.48 16.447s30.211 16.448 67.48 16.448c37.27 0 67.483-7.364 67.483-16.448s-30.213-16.447-67.483-16.447Z" class="color5ba1e1 svgShape"></path><path fill="#afd8f9" d="M255.999 168.397c-37.269 0-67.48 7.363-67.48 16.448 0 9.083 30.211 16.448 67.48 16.448 37.27 0 67.483-7.365 67.483-16.448 0-9.085-30.213-16.448-67.483-16.448Z" class="colorafd8f9 svgShape"></path><path fill="#c8dff5" d="M188.519 184.845c0 9.083 30.211 16.448 67.48 16.448 37.27 0 67.483-7.365 67.483-16.448Z" class="colorc8dff5 svgShape"></path><path fill="#2481d7" d="M312.29 111.146c-15.07-3.673-35.061-5.695-56.29-5.695-21.23 0-41.222 2.022-56.29 5.695-16.7 4.07-25.167 9.542-25.168 16.262v23.707a81.163 81.163 0 0 0 37.341 68.397 76.478 76.478 0 0 1 29.863 37.45c.014.04.029.077.045.115 1.233 3.912 9.264 4.53 14.209 4.53 4.94 0 12.963-.618 14.206-4.522.017-.039.033-.079.048-.12a76.57 76.57 0 0 1 29.878-37.471 81.168 81.168 0 0 0 37.326-68.38v-23.706c0-6.72-8.47-12.192-25.168-16.262Zm19.604 39.969a75.626 75.626 0 0 1-34.788 63.709 82.187 82.187 0 0 0-31.886 39.716 2.796 2.796 0 0 0-.144.265c-1.08.501-4.325 1.237-9.076 1.237-4.771 0-8.022-.742-9.089-1.244a2.806 2.806 0 0 0-.105-.19 82.088 82.088 0 0 0-31.897-39.766 75.624 75.624 0 0 1-34.803-63.727v-23.706c0-3.444 8.408-7.807 20.921-10.857 14.65-3.57 34.174-5.537 54.972-5.537 20.799 0 40.322 1.967 54.973 5.537 12.513 3.05 20.92 7.413 20.922 10.856Z" class="color2481d7 svgShape"></path><path fill="#2481d7" d="M304.046 171.863c-12.85-3.132-29.914-4.857-48.046-4.857-18.134 0-35.196 1.725-48.046 4.857-9.5 2.316-20.827 6.448-20.827 12.982 0 6.534 11.326 10.666 20.827 12.982 12.85 3.132 29.913 4.857 48.046 4.857s35.195-1.725 48.046-4.857c9.5-2.316 20.827-6.448 20.827-12.982 0-6.534-11.326-10.666-20.827-12.982ZM256 199.902c-38.948 0-66.09-7.935-66.09-15.057 0-7.121 27.142-15.057 66.09-15.057 38.948 0 66.09 7.936 66.09 15.057 0 7.122-27.142 15.057-66.09 15.057Z" class="color2481d7 svgShape"></path><path fill="#e9f6ff" d="M255.999 306.247c-16.504 0-29.883 3.26-29.883 7.284 0 4.023 13.38 7.283 29.883 7.283 16.504 0 29.884-3.26 29.884-7.283 0-4.023-13.38-7.284-29.884-7.284Z" class="colore9f6ff svgShape"></path><path fill="#ffffff" d="M255.999 286.972c-16.504 0-29.883 3.262-29.883 7.284s13.38 7.283 29.883 7.283c16.504 0 29.884-3.261 29.884-7.283s-13.38-7.284-29.884-7.284Z" class="colorfff svgShape"></path><path fill="#2481d7" d="M305.103 233.623a2.782 2.782 0 1 0-.714 5.519c36.413 4.708 52.998 13.503 52.998 19.682 0 4.028-7.457 10.149-28.387 15.25-19.465 4.745-45.391 7.358-73 7.358s-53.534-2.613-72.999-7.358c-20.93-5.101-28.387-11.222-28.387-15.25 0-6.179 16.585-14.974 52.997-19.682a2.782 2.782 0 1 0-.714-5.519c-17.393 2.25-57.847 9.207-57.847 25.201 0 18.299 55.103 28.172 106.95 28.172 28.04 0 54.433-2.67 74.317-7.516 26.972-6.574 32.634-14.861 32.634-20.656 0-15.994-40.455-22.952-57.848-25.2Z" class="color2481d7 svgShape"></path><path fill="#c8dff5" d="M224.385 269.755q1.366.163 2.785.312l.29-2.768q-1.399-.146-2.747-.307zm1.879-20.333.302 2.766q1.352-.149 2.75-.283l-.265-2.77q-1.417.138-2.787.287zm3.694 20.92q1.375.125 2.79.239l.222-2.774q-1.398-.112-2.757-.237zm-11.136-1.34q1.355.207 2.78.4l.372-2.758q-1.399-.189-2.73-.392zm33.483 2.443q1.388.016 2.794.02l.007-2.783q-1.392-.003-2.77-.02zm-5.59-.114q1.386.041 2.794.07l.057-2.782q-1.395-.029-2.77-.07zm-11.176-.543q1.38.095 2.793.178l.163-2.778q-1.399-.082-2.765-.175zm5.586.326q1.385.068 2.795.122l.107-2.78q-1.396-.054-2.767-.12zm-20.427-21 .387 2.756q1.339-.188 2.737-.362l-.343-2.761q-1.421.176-2.78.367zM202.3 264.861a30.98 30.98 0 0 0 2.718 1.05l.89-2.635c-.918-.31-1.75-.631-2.472-.954zm.383-7.434-1.251-2.484a11.36 11.36 0 0 0-2.639 1.75l1.9 2.034a8.685 8.685 0 0 1 1.99-1.3zm1.455-3.637.956 2.613a40.705 40.705 0 0 1 2.557-.833l-.78-2.67c-.981.286-1.901.586-2.733.89zm11.01-2.787.498 2.738q1.314-.24 2.713-.463l-.438-2.747q-1.43.228-2.773.472zm-7.39 15.741c.864.237 1.79.471 2.754.694l.628-2.71a67.96 67.96 0 0 1-2.645-.667zm5.518 1.288q1.337.267 2.77.517l.478-2.741q-1.398-.244-2.703-.504zm-3.655-15.865.659 2.702q1.274-.31 2.67-.603l-.57-2.723c-.956.2-1.885.41-2.759.624zm-9.519 7.658-2.708.633a5.204 5.204 0 0 0 2.235 2.92l1.62-2.262a2.804 2.804 0 0 1-1.147-1.291zm97.99-5.754q1.397.278 2.68.574l.625-2.711q-1.321-.305-2.762-.592zm3.713 10.43.663 2.703c.97-.238 1.895-.486 2.75-.738l-.785-2.669c-.815.24-1.699.477-2.628.705zm1.614-9.194c.923.252 1.793.515 2.587.78l.884-2.637a50.452 50.452 0 0 0-2.739-.827zm-6.98 10.329.5 2.737q1.436-.262 2.768-.543l-.572-2.722q-1.296.272-2.696.528zm-3.77-12.509q1.4.213 2.72.443l.475-2.742q-1.346-.233-2.775-.451zm21.905 5.682-2.684.73a.615.615 0 0 1 .021.157 1.618 1.618 0 0 1-.558.924l1.933 2a4.052 4.052 0 0 0 1.407-2.924 3.384 3.384 0 0 0-.119-.887zm-56.697 9.87.017 2.782q1.406-.009 2.795-.03l-.04-2.781q-1.378.02-2.772.028zm49.11-5.72.964 2.61a24.852 24.852 0 0 0 2.706-1.166l-1.268-2.477a22.097 22.097 0 0 1-2.402 1.032zm2.62-8.469-1.123 2.546a13.144 13.144 0 0 1 2.202 1.195l1.598-2.278a15.9 15.9 0 0 0-2.677-1.463zM274.49 268.13l.173 2.777q1.412-.088 2.792-.188l-.203-2.775q-1.363.1-2.762.186zm-5.532.287.117 2.78q1.411-.06 2.794-.132l-.145-2.778q-1.369.072-2.766.13zm11.053-.69.234 2.773q1.415-.12 2.788-.252l-.266-2.769q-1.356.13-2.756.249zm-16.591.871.065 2.782q1.408-.034 2.795-.079l-.09-2.78q-1.374.044-2.77.077zm22.097-1.403.305 2.766q1.418-.156 2.784-.326l-.342-2.761q-1.347.167-2.747.321zm1.684-14.805q1.4.166 2.74.346l.37-2.757q-1.36-.183-2.782-.352zM291 266.51l.388 2.755q1.425-.201 2.779-.418l-.44-2.747q-1.327.212-2.727.41zm-8.316-14.605q.896.086 1.771.178l.29-2.767q-.888-.093-1.796-.18zm-181.196-31.599 22.614 38.438 22.608-38.438zm4.865 2.783h35.492L124.1 253.257z" class="colorc8dff5 svgShape"></path><path fill="#c8dff5" d="M99.862 220.306h48.472v2.782H99.862zM124.1 253.257l-22.613 38.437h45.222Zm0 5.487 17.744 30.168h-35.492Z" class="colorc8dff5 svgShape"></path><path fill="#c8dff5" d="M99.862 288.912h48.472v2.782H99.862zM119.137 232.973v2.782h7.491l-3.727 6.343 2.399 1.409 6.191-10.534h-12.354zM115.984 228.096h16.226v2.782h-16.226zM121.569 276.245l3.731-6.341-2.398-1.411-6.198 10.535h12.356v-2.783h-7.491zM115.984 281.122h16.226v2.782h-16.226zM365.293 220.306l22.612 38.438 22.606-38.438Zm4.865 2.783h35.49l-17.743 30.167Z" class="colorc8dff5 svgShape"></path><path fill="#c8dff5" d="M363.666 220.306h48.472v2.782h-48.472zM387.905 253.256l-22.612 38.438h45.218Zm0 5.488 17.743 30.168h-35.49Z" class="colorc8dff5 svgShape"></path><path fill="#c8dff5" d="M363.666 288.912h48.472v2.782h-48.472zM382.94 232.973v2.782h7.492l-3.726 6.343 2.399 1.409 6.189-10.534H382.94zM379.79 228.096h16.227v2.782H379.79zM385.373 276.245l3.731-6.341-2.397-1.411-6.199 10.535h12.355v-2.783h-7.49zM379.79 281.122h16.227v2.782H379.79zM122.728 375.403h2.782v9.895h-2.782z" class="colorc8dff5 svgShape"></path><path fill="#c8dff5" d="M124.118 368.312a16.979 16.979 0 1 0 16.978 16.978 16.998 16.998 0 0 0-16.978-16.978Zm0 31.175a14.196 14.196 0 1 1 14.195-14.197 14.212 14.212 0 0 1-14.195 14.197Z" class="colorc8dff5 svgShape"></path><path fill="#c8dff5" d="M122.728 375.403h2.782v9.895h-2.782z" class="colorc8dff5 svgShape"></path><path fill="#c8dff5" d="m119.263 388.174 3.878-3.872 1.966 1.968-3.878 3.872zM143.175 367.075a7.43 7.43 0 0 0-10.51 0l1.97 1.967a4.65 4.65 0 1 1 6.573 6.577l1.967 1.968a7.431 7.431 0 0 0 0-10.512ZM134.901 373.383l1.614-1.616 1.968 1.966-1.613 1.615zM105.06 367.076a7.447 7.447 0 0 0 0 10.51l1.969-1.966a4.65 4.65 0 1 1 6.575-6.578l1.97-1.966a7.443 7.443 0 0 0-10.514 0ZM109.753 373.734l1.967-1.969 1.617 1.615-1.967 1.97zM106.283 400.782l2.5-2.499 1.968 1.968-2.5 2.5zM137.489 400.249l1.968-1.966 2.496 2.499-1.968 1.966zM387.922 108.843a21.19 21.19 0 1 0 21.192 21.189 21.213 21.213 0 0 0-21.192-21.19Zm0 39.598a18.408 18.408 0 1 1 18.41-18.41 18.429 18.429 0 0 1-18.41 18.41Z" class="colorc8dff5 svgShape"></path><path fill="#c8dff5" d="M386.53 120.108h2.783v9.933h-2.783z" class="colorc8dff5 svgShape"></path><path fill="#c8dff5" d="M386.53 120.108h2.783v9.933h-2.783z" class="colorc8dff5 svgShape"></path><path fill="#c8dff5" d="M387.919 128.646h5.68v2.782h-5.68z" class="colorc8dff5 svgShape"></path><path fill="#c8dff5" d="M387.922 127.596a2.437 2.437 0 1 0 2.436 2.436 2.439 2.439 0 0 0-2.436-2.436Zm0 2.782a.346.346 0 1 1 .346-.346.347.347 0 0 1-.346.346ZM147.273 362.76l20.218-20.218 1.967 1.967-20.218 20.219zM342.541 167.491l20.22-20.218 1.967 1.967-20.22 20.219zM147.273 149.24l1.967-1.968 20.217 20.218-1.967 1.968zM342.541 344.51l1.968-1.968 20.218 20.22-1.967 1.967zM230.398 86.3l-.235-2.772q-1.403.118-2.786.249l.263 2.77q1.366-.13 2.758-.247zm-3.01 36.007q1.382.13 2.787.25l.234-2.774q-1.39-.116-2.757-.246zm-5.565-.589q1.376.162 2.782.31l.292-2.767q-1.389-.147-2.75-.306zm-5.554-.717q1.37.194 2.775.376l.356-2.76q-1.387-.179-2.74-.37zm8.616-34.18-.292-2.766q-1.405.148-2.782.31l.325 2.763q1.36-.16 2.75-.306zm11.037-.931-.18-2.777q-1.404.09-2.79.193l.207 2.775q1.37-.102 2.763-.191zm-16.532 1.576-.358-2.76q-1.403.182-2.775.377l.391 2.755q1.355-.192 2.742-.372zm27.602-2.085-.078-2.78q-1.405.039-2.794.09l.102 2.78q1.376-.05 2.77-.09zm-2.861 38.011q1.39.052 2.794.09l.077-2.78q-1.391-.04-2.77-.09zm8.402-38.117-.03-2.783q-1.403.016-2.794.042l.053 2.782q1.379-.026 2.771-.041zm-41.803 34.863q1.362.232 2.767.45l.428-2.748q-1.384-.216-2.728-.445zm30.725-34.552-.128-2.78q-1.406.065-2.792.14l.152 2.779q1.374-.076 2.768-.14zm-8.491 37.19q1.383.103 2.79.194l.18-2.777q-1.394-.09-2.765-.19zm5.581.36q1.388.077 2.792.141l.128-2.78q-1.392-.063-2.767-.139zm-59.83-20.09-2.782.002a6.7 6.7 0 0 0 .915 3.31l2.423-1.366a3.918 3.918 0 0 1-.556-1.946zm8.697-7.885-1.139-2.539a41.08 41.08 0 0 0-2.587 1.266L185 96.34c.74-.397 1.552-.794 2.412-1.179zm26.502-6.917-.428-2.749q-1.404.22-2.767.451l.468 2.743q1.344-.229 2.727-.445zm-30.219 23.957a40.43 40.43 0 0 0 2.588 1.265l1.137-2.539a37.827 37.827 0 0 1-2.41-1.178zm66.025 11.347q1.39.026 2.794.042l.03-2.783q-1.392-.014-2.772-.04zm-66.983-25.853-1.559-2.304a18.257 18.257 0 0 0-2.354 1.868l1.917 2.016a15.563 15.563 0 0 1 1.996-1.58zm9.74-4.502-.896-2.634c-.927.315-1.825.64-2.67.967l1.002 2.595c.81-.313 1.672-.625 2.565-.928zm-13.21 7.906-2.426-1.36a6.704 6.704 0 0 0-.908 3.302h2.782a3.919 3.919 0 0 1 .552-1.942zm-.433 7.734a18.365 18.365 0 0 0 2.354 1.867l1.56-2.306a15.53 15.53 0 0 1-1.998-1.578zm29.634-19.659-.51-2.735q-1.404.262-2.756.539l.557 2.726q1.33-.272 2.71-.53zm-8.74 28.702q1.337.33 2.738.644l.607-2.715q-1.37-.308-2.68-.63zm5.486 1.231q1.35.277 2.755.539l.51-2.736q-1.38-.256-2.708-.528zm-2.15-28.826-.609-2.715q-1.401.314-2.739.643l.666 2.702q1.31-.323 2.682-.63zm-5.344 1.32-.73-2.685q-1.398.38-2.714.78l.807 2.662q1.279-.387 2.637-.757zm-8.8 22.96c.849.327 1.747.652 2.672.966l.895-2.634a67.534 67.534 0 0 1-2.564-.928zm5.367 1.83q1.316.398 2.714.779l.73-2.685q-1.36-.37-2.638-.757zm69.394-33.827q-1.39-.032-2.794-.054l-.042 2.783q1.392.02 2.771.053zm46.6 32.93.638 2.708q1.4-.33 2.733-.674l-.698-2.694q-1.302.337-2.672.66zm5.324-1.382.767 2.674q1.396-.4 2.705-.82l-.849-2.65q-1.268.407-2.623.796zm-1.963-25.56q-1.333-.345-2.735-.674l-.636 2.709q1.369.32 2.672.659zm5.425 1.56q-1.309-.418-2.706-.818l-.766 2.674q1.354.388 2.623.795zM304.89 116.65l.533 2.73q1.402-.273 2.752-.562l-.583-2.72q-1.325.283-2.702.552zm-5.437.972.448 2.745q1.403-.229 2.764-.471l-.49-2.74q-1.339.24-2.722.466zm8.711-30.357q-1.348-.29-2.751-.563l-.533 2.73q1.377.27 2.701.553zm22.143 20.364 1.72 2.186a14.086 14.086 0 0 0 2.214-2.135l-2.156-1.758a11.37 11.37 0 0 1-1.778 1.707zm-27.654-21.442q-1.36-.243-2.764-.471l-.448 2.746q1.383.225 2.723.464zm33.163 15.106-2.673.77a3.462 3.462 0 0 1 .002 1.95l2.674.765a6.238 6.238 0 0 0-.003-3.485zm-3.737-1.139 2.153-1.76a14.17 14.17 0 0 0-2.214-2.132l-1.72 2.187a11.409 11.409 0 0 1 1.781 1.705zm-6.268 10.198 1.22 2.5c.917-.447 1.776-.909 2.552-1.373l-1.426-2.388c-.71.423-1.499.848-2.346 1.26zm-4.997 2.087.947 2.616a61.89 61.89 0 0 0 2.655-1.028l-1.067-2.57c-.794.33-1.647.66-2.535.982zm8.758-17.84a34.781 34.781 0 0 0-2.552-1.372l-1.22 2.501c.847.413 1.637.837 2.347 1.26zm-5.168-2.545a61.586 61.586 0 0 0-2.656-1.028l-.945 2.617c.884.32 1.737.65 2.535.98zm-30.42 26.381.375 2.757q1.402-.19 2.772-.394l-.41-2.752q-1.351.201-2.737.39zm-19.131-35.408q-1.387-.083-2.792-.153l-.14 2.778q1.391.07 2.765.153zm-16.78 2.237.018-2.782q-1.043-.007-2.09-.007h-.704l.004 2.783H256q1.04 0 2.074.006zm8.322 35.396.09 2.78q1.404-.045 2.793-.102l-.114-2.78q-1.377.057-2.77.102zm-5.541.13.042 2.783q1.403-.021 2.794-.054l-.065-2.782q-1.378.033-2.772.054zm8.414-38.044q-1.39-.057-2.794-.103l-.09 2.781q1.393.045 2.77.102zm-13.27 38.08h-.685l-.004 2.782.689.001h.135q.987 0 1.969-.006l-.018-2.783c-.692.005-1.39.004-2.085.007zm24.435-37.412q-1.385-.11-2.79-.207l-.192 2.775q1.392.096 2.761.205zm-8.502 37.017.14 2.78q1.405-.072 2.793-.154l-.166-2.778q-1.374.083-2.767.152zm16.56-1.32.31 2.766q1.403-.157 2.779-.326l-.34-2.761q-1.36.167-2.748.322zm8.629-33.826q-1.367-.204-2.773-.394l-.374 2.757q1.387.188 2.738.389zm-5.551-.753q-1.374-.17-2.78-.326l-.308 2.766q1.39.154 2.748.321zm-14.107 35.57.193 2.775q1.406-.098 2.789-.207l-.22-2.774q-1.37.109-2.762.206zm8.543-36.19q-1.379-.138-2.785-.263l-.247 2.771q1.39.124 2.755.261zm-3.02 35.752.246 2.771q1.406-.126 2.786-.264l-.278-2.768q-1.365.137-2.755.26zM256 100.637c-2.534 0-5.555.417-5.555 2.404 0 1.989 3.02 2.406 5.555 2.406 2.534 0 5.555-.417 5.555-2.406 0-1.987-3.021-2.404-5.555-2.404z" class="colorc8dff5 svgShape"></path><path fill="#c8dff5" d="M254.608 104.056h2.782v11.913h-2.782zM254.608 128.987h2.782v11.914h-2.782zM254.608 152.409h2.782v31.12h-2.782zM369.848 369.849v10.452h2.783v-7.67h7.671v-2.782h-10.454zM399.045 399.046v10.453h2.783v-7.67h7.672v-2.783h-10.455z" class="colorc8dff5 svgShape"></path><path fill="#c8dff5" d="M404.797 404.797v10.454h2.782v-7.672h7.671v-2.782h-10.453z" class="colorc8dff5 svgShape"></path><path fill="#c8dff5" d="M410.549 410.548V421h2.782v-7.67H421v-2.782h-10.451zM366.024 332.796v10.453h2.782v-7.671h7.67v-2.782h-10.452zM395.222 361.995v10.452h2.782v-7.67h7.671v-2.782h-10.453z" class="colorc8dff5 svgShape"></path><path fill="#c8dff5" d="M400.972 367.745v10.453h2.782v-7.671h7.67v-2.782h-10.452z" class="colorc8dff5 svgShape"></path><path fill="#c8dff5" d="M406.724 373.496v10.452h2.782v-7.669h7.67v-2.783h-10.452zM139.369 131.699v7.67h-7.671v2.782h10.454v-10.452h-2.783zM110.172 102.501v7.671H102.5v2.782h10.454v-10.453h-2.782z" class="colorc8dff5 svgShape"></path><path fill="#c8dff5" d="M104.421 96.751v7.67H96.75v2.782h10.453V96.751h-2.782z" class="colorc8dff5 svgShape"></path><path fill="#c8dff5" d="M98.669 91v7.67H91v2.782h10.452V91h-2.783zM143.194 168.751v7.671h-7.671v2.782h10.453v-10.453h-2.782zM113.996 139.553v7.671h-7.672v2.782h10.454v-10.453h-2.782z" class="colorc8dff5 svgShape"></path><path fill="#c8dff5" d="M108.245 133.802v7.671h-7.671v2.782h10.453v-10.453h-2.782z" class="colorc8dff5 svgShape"></path><path fill="#c8dff5" d="M102.493 128.052v7.67h-7.669v2.782h10.451v-10.452h-2.782zM254.608 381.098h2.783v-2.782h-2.783zm0 5.565h2.783v-2.782h-2.783zm0 4.781h2.783v-1.999h-2.783zm0-21.475h2.783v-2.782h-2.783zm0-13.911v2.782h2.783v-2.782zm0 8.347h2.783v-2.783h-2.783zm0 11.129h2.783v-2.783h-2.783zm0-125.31h2.783v-2h-2.783zm0-10.346h2.783v-2.783h-2.783zm0-5.565h2.783v-2.782h-2.783zm0 11.13h2.783v-2.783h-2.783zm0-30.606v2.782h2.783v-2.782zm0 13.911h2.783v-2.782h-2.783zm0-5.564h2.783V220.4h-2.783zm99.941-65.733-1.967 1.967c5.293 5.294-21.443 47.345-83.63 109.533-57.076 57.076-97.187 84.288-107.49 84.285a2.8 2.8 0 0 1-2.044-.654l-1.967 1.967a5.272 5.272 0 0 0 3.895 1.362c6.474 0 18.654-6.681 36.353-19.956 21.111-15.834 47.114-38.931 73.219-65.037 26.106-26.105 49.204-52.108 65.038-73.22 16.733-22.31 22.99-35.851 18.593-40.248z" class="colorc8dff5 svgShape"></path><path fill="#c8dff5" d="M352.581 352.582c-5.289 5.293-47.345-21.443-109.533-83.631-26.015-26.016-49.021-51.913-64.779-72.922-7.629-10.172-13.129-18.624-16.346-25.12-4.183-8.45-3.146-10.851-2.506-11.491l-1.967-1.968c-4.396 4.397 1.86 17.938 18.594 40.249 15.833 21.11 38.932 47.113 65.037 73.219 26.105 26.106 52.109 49.203 73.22 65.037 17.699 13.276 29.88 19.956 36.352 19.956a5.271 5.271 0 0 0 3.895-1.362Z" class="colorc8dff5 svgShape"></path></svg></g></svg>